<svg xmlns="http://www.w3.org/2000/svg" viewBox="0 0 24 24" fill="none" stroke="currentColor" stroke-width="2" stroke-linecap="round" stroke-linejoin="round">
  <style>
    @keyframes crunchLeft {
      0%, 100% { transform: translateX(0); opacity: 0.4; }
      50% { transform: translateX(1.5px); opacity: 1; }
    }
    @keyframes crunchRight {
      0%, 100% { transform: translateX(0); opacity: 0.4; }
      50% { transform: translateX(-1.5px); opacity: 1; }
    }
    @keyframes pulseFold {
      0%, 100% { opacity: 0.5; }
      50% { opacity: 1; }
    }
    .bracket-l {
      animation: crunchLeft 1.5s ease-in-out infinite;
    }
    .bracket-r {
      animation: crunchRight 1.5s ease-in-out infinite;
    }
    .doc-fold {
      animation: pulseFold 2s ease-in-out infinite;
    }
  </style>
  
  <!-- Document Outline (Static) -->
  <path d="M15 2H6a2 2 0 0 0-2 2v16a2 2 0 0 0 2 2h12a2 2 0 0 0 2-2V7Z" />
  
  <!-- Animated Document Fold -->
  <path class="doc-fold" d="M14 2v4a2 2 0 0 0 2 2h4" />
  
  <!-- Animated Brackets (Crunching/Parsing effect) -->
  <path class="bracket-l" d="M10 12H8a1 1 0 0 0-1 1v1a1 1 0 0 1-1 1 1 1 0 0 1 1 1v1a1 1 0 0 0 1 1h2" />
  <path class="bracket-r" d="M14 12h2a1 1 0 0 1 1 1v1a1 1 0 0 0 1 1 1 1 0 0 0-1 1v1a1 1 0 0 1-1 1h-2" />
</svg>